<svg width="19" height="18" viewBox="0 0 19 18" fill="none" xmlns="http://www.w3.org/2000/svg">
<path d="M18.1094 0H17.8125V0.9375C17.8125 1.24688 17.6121 1.5 17.3672 1.5H15.8828C15.6379 1.5 15.4375 1.24688 15.4375 0.9375V0H3.5625V0.9375C3.5625 1.24688 3.36211 1.5 3.11719 1.5H1.63281C1.38789 1.5 1.1875 1.24688 1.1875 0.9375V0H0.890625C0.39707 0 0 0.501562 0 1.125V16.875C0 17.4984 0.39707 18 0.890625 18H1.1875V17.0625C1.1875 16.7531 1.38789 16.5 1.63281 16.5H3.11719C3.36211 16.5 3.5625 16.7531 3.5625 17.0625V18H15.4375V17.0625C15.4375 16.7531 15.6379 16.5 15.8828 16.5H17.3672C17.6121 16.5 17.8125 16.7531 17.8125 17.0625V18H18.1094C18.6029 18 19 17.4984 19 16.875V1.125C19 0.501562 18.6029 0 18.1094 0ZM3.5625 14.4375C3.5625 14.7469 3.36211 15 3.11719 15H1.63281C1.38789 15 1.1875 14.7469 1.1875 14.4375V12.5625C1.1875 12.2531 1.38789 12 1.63281 12H3.11719C3.36211 12 3.5625 12.2531 3.5625 12.5625V14.4375ZM3.5625 9.9375C3.5625 10.2469 3.36211 10.5 3.11719 10.5H1.63281C1.38789 10.5 1.1875 10.2469 1.1875 9.9375V8.0625C1.1875 7.75313 1.38789 7.5 1.63281 7.5H3.11719C3.36211 7.5 3.5625 7.75313 3.5625 8.0625V9.9375ZM3.5625 5.4375C3.5625 5.74687 3.36211 6 3.11719 6H1.63281C1.38789 6 1.1875 5.74687 1.1875 5.4375V3.5625C1.1875 3.25312 1.38789 3 1.63281 3H3.11719C3.36211 3 3.5625 3.25312 3.5625 3.5625V5.4375ZM13.6562 15.1875C13.6562 15.4969 13.4559 15.75 13.2109 15.75H5.78906C5.54414 15.75 5.34375 15.4969 5.34375 15.1875V10.6875C5.34375 10.3781 5.54414 10.125 5.78906 10.125H13.2109C13.4559 10.125 13.6562 10.3781 13.6562 10.6875V15.1875ZM13.6562 7.3125C13.6562 7.62187 13.4559 7.875 13.2109 7.875H5.78906C5.54414 7.875 5.34375 7.62187 5.34375 7.3125V2.8125C5.34375 2.50312 5.54414 2.25 5.78906 2.25H13.2109C13.4559 2.25 13.6562 2.50312 13.6562 2.8125V7.3125ZM17.8125 14.4375C17.8125 14.7469 17.6121 15 17.3672 15H15.8828C15.6379 15 15.4375 14.7469 15.4375 14.4375V12.5625C15.4375 12.2531 15.6379 12 15.8828 12H17.3672C17.6121 12 17.8125 12.2531 17.8125 12.5625V14.4375ZM17.8125 9.9375C17.8125 10.2469 17.6121 10.5 17.3672 10.5H15.8828C15.6379 10.5 15.4375 10.2469 15.4375 9.9375V8.0625C15.4375 7.75313 15.6379 7.5 15.8828 7.5H17.3672C17.6121 7.5 17.8125 7.75313 17.8125 8.0625V9.9375ZM17.8125 5.4375C17.8125 5.74687 17.6121 6 17.3672 6H15.8828C15.6379 6 15.4375 5.74687 15.4375 5.4375V3.5625C15.4375 3.25312 15.6379 3 15.8828 3H17.3672C17.6121 3 17.8125 3.25312 17.8125 3.5625V5.4375Z" fill="white"/>
</svg>
