<svg width="22" height="24" viewBox="0 0 22 24" fill="none" xmlns="http://www.w3.org/2000/svg">
<path d="M7.17707 14.5003C5.45316 14.6213 3.88867 15.3375 3.00094 17.8894C2.89996 18.1805 2.65719 18.3572 2.37402 18.3572C1.89664 18.3572 0.420664 17.0602 0 16.747C0.000429687 20.6072 1.63023 24 5.50043 24C8.76004 24 11.0004 21.9483 11.0004 18.3661C11.0004 18.2203 10.9725 18.0811 10.9587 17.9381L7.17707 14.5003ZM19.6754 0C19.024 0 18.4134 0.314531 17.9476 0.771094C9.16438 9.33047 8.25043 9.53156 8.25043 12.0511C8.25043 12.6933 8.39008 13.3055 8.62555 13.8652L11.3678 16.358C11.6776 16.4423 11.9969 16.5 12.3299 16.5C14.9987 16.5 16.5455 14.3686 21.4032 4.47844C21.7203 3.80578 22.0004 3.07922 22.0004 2.32266C22.0004 0.9675 20.8832 0 19.6754 0Z" fill="white"/>
</svg>
