<svg width="22" height="24" viewBox="0 0 22 24" fill="none" xmlns="http://www.w3.org/2000/svg">
<path d="M9.28125 0H12.7188C13.2902 0 13.75 0.501562 13.75 1.125V9H17.5184C18.2832 9 18.6656 10.0078 18.1242 10.5984L11.5887 17.7328C11.2664 18.0844 10.7379 18.0844 10.4156 17.7328L3.87148 10.5984C3.33008 10.0078 3.7125 9 4.47734 9H8.25V1.125C8.25 0.501562 8.70977 0 9.28125 0ZM22 17.625V22.875C22 23.4984 21.5402 24 20.9688 24H1.03125C0.459766 24 0 23.4984 0 22.875V17.625C0 17.0016 0.459766 16.5 1.03125 16.5H7.33477L9.44023 18.7969C10.3039 19.7391 11.6961 19.7391 12.5598 18.7969L14.6652 16.5H20.9688C21.5402 16.5 22 17.0016 22 17.625ZM16.6719 21.75C16.6719 21.2344 16.2852 20.8125 15.8125 20.8125C15.3398 20.8125 14.9531 21.2344 14.9531 21.75C14.9531 22.2656 15.3398 22.6875 15.8125 22.6875C16.2852 22.6875 16.6719 22.2656 16.6719 21.75ZM19.4219 21.75C19.4219 21.2344 19.0352 20.8125 18.5625 20.8125C18.0898 20.8125 17.7031 21.2344 17.7031 21.75C17.7031 22.2656 18.0898 22.6875 18.5625 22.6875C19.0352 22.6875 19.4219 22.2656 19.4219 21.75Z" fill="white"/>
</svg>
