<svg width="22" height="7" viewBox="0 0 22 7" fill="none" xmlns="http://www.w3.org/2000/svg">
<path d="M14.1935 3.5C14.1935 5.43472 12.7653 7 11 7C9.23468 7 7.80645 5.43472 7.80645 3.5C7.80645 1.56528 9.23468 0 11 0C12.7653 0 14.1935 1.56528 14.1935 3.5ZM18.8065 0C17.0411 0 15.6129 1.56528 15.6129 3.5C15.6129 5.43472 17.0411 7 18.8065 7C20.5718 7 22 5.43472 22 3.5C22 1.56528 20.5718 0 18.8065 0ZM3.19355 0C1.42823 0 0 1.56528 0 3.5C0 5.43472 1.42823 7 3.19355 7C4.95887 7 6.3871 5.43472 6.3871 3.5C6.3871 1.56528 4.95887 0 3.19355 0Z" fill="white"/>
</svg>
