<svg width="22" height="21" viewBox="0 0 22 21" fill="none" xmlns="http://www.w3.org/2000/svg">
<path d="M21.3959 11.341C22.2014 10.4623 22.2014 9.03769 21.3959 8.15902L14.5209 0.659021C13.7155 -0.21965 12.4096 -0.219697 11.6041 0.659021L0.604087 12.659C-0.201362 13.5377 -0.201362 14.9623 0.604087 15.841L4.72908 20.341C5.1159 20.7629 5.64051 21 6.18753 21H21.4844C21.7691 21 22 20.7481 22 20.4375V18.5625C22 18.2519 21.7691 18 21.4844 18H15.2919L21.3959 11.341ZM8.39243 8.40535L14.2952 14.8447L11.4028 18H6.47233L3.03483 14.25L8.39243 8.40535Z" fill="white"/>
</svg>
