<svg width="22" height="24" viewBox="0 0 22 24" fill="none" xmlns="http://www.w3.org/2000/svg">
<path d="M2.18066 15.6213C1.66504 16.1838 1.375 16.947 1.375 17.7429V19.8752L0 22.5002L1.375 24.0002L3.78125 22.5002H5.7359C6.46508 22.5002 7.16461 22.1843 7.68023 21.6218L13.1218 15.6865L7.6218 9.68649L2.18066 15.6213ZM20.7917 1.31836C19.1817 -0.439453 16.5688 -0.439453 14.9587 1.31836L11.6463 4.93195L11.0834 4.31789C10.6777 3.87539 10.0242 3.88149 9.625 4.31789L7.86457 6.23836C7.46195 6.67758 7.46195 7.39008 7.86457 7.8293L14.8229 15.4202C15.2286 15.8627 15.8821 15.8566 16.2813 15.4202L18.0417 13.5002C18.4443 13.061 18.4443 12.3485 18.0417 11.9093L17.4788 11.2952L20.7913 7.68164C22.403 5.92477 22.403 3.0757 20.7917 1.31836Z" fill="white"/>
</svg>
