<svg width="27" height="24" viewBox="0 0 27 24" fill="none" xmlns="http://www.w3.org/2000/svg">
<path d="M24 15C24 15 21 19.343 21 21C21 22.657 22.3434 24 24 24C25.6566 24 27 22.657 27 21C27 19.343 24 15 24 15ZM23.5608 10.1747L13.8253 0.439219C13.5323 0.14625 13.1484 0 12.7645 0C12.3806 0 11.9967 0.14625 11.7042 0.439219L7.88007 4.26328L3.84037 0.223125C3.5474 -0.0698437 3.07255 -0.0698437 2.78005 0.223125L1.71973 1.28344C1.42723 1.57641 1.42723 2.05125 1.71973 2.34375L5.75991 6.38344L1.31801 10.8253C-0.439338 12.5822 -0.439338 15.4312 1.31801 17.1886L6.81132 22.6819C7.68976 23.5603 8.84148 24 9.99274 24C11.1445 24 12.2957 23.5608 13.1742 22.6819L23.5603 12.2958C24.1462 11.7098 24.1462 10.7606 23.5608 10.1747ZM18.1129 13.5014H3.09036C3.15412 13.3214 3.25771 13.1273 3.43865 12.9469L4.05506 12.3305L7.88054 8.505L10.6274 11.2519C11.2129 11.8373 12.1626 11.8373 12.7481 11.2519C13.3335 10.6664 13.3335 9.71672 12.7481 9.13125L10.0012 6.38437L12.7645 3.62109L20.3789 11.2355L18.1129 13.5014Z" fill="white"/>
</svg>
