<svg width="22" height="18" viewBox="0 0 22 18" fill="none" xmlns="http://www.w3.org/2000/svg">
<path d="M21.8737 10.6919L19.1075 16.5116C18.8923 16.9645 18.584 17.3403 18.2136 17.6014C17.8431 17.8626 17.4233 18 16.9961 18H1.7197C1.01223 18 0.571427 17.0581 0.927896 16.3081L3.69409 10.4884C3.90936 10.0355 4.2176 9.65971 4.58807 9.39857C4.95855 9.13742 5.37832 9 5.80556 9H21.082C21.7894 9 22.2302 9.94186 21.8737 10.6919ZM5.80556 7.5H18.3333V5.25C18.3333 4.00734 17.5125 3 16.5 3H10.3889L7.94444 0H1.83333C0.820799 0 0 1.00734 0 2.25V15.2834L2.63836 9.73256C3.2929 8.35547 4.50652 7.5 5.80556 7.5Z" fill="white"/>
</svg>
