<svg width="23" height="19" viewBox="0 0 23 19" fill="none" xmlns="http://www.w3.org/2000/svg">
<path d="M22.4376 11.9847V16.4847C22.4376 17.7273 21.6168 18.7347 20.6042 18.7347H2.27089C1.25836 18.7347 0.437561 17.7273 0.437561 16.4847V11.9847C0.437561 10.742 1.25836 9.73468 2.27089 9.73468H20.6042C21.6168 9.73468 22.4376 10.742 22.4376 11.9847ZM20.6042 8.23468C21.0078 8.23425 21.4074 8.33249 21.7797 8.52366L18.0929 1.73659C17.9255 1.42839 17.6987 1.17569 17.4326 1.00091C17.1665 0.826136 16.8693 0.734686 16.5675 0.73468H6.30763C6.00581 0.734681 5.70867 0.82613 5.44257 1.00091C5.17646 1.17569 4.94964 1.42839 4.78222 1.73659L1.09538 8.52366C1.4677 8.33249 1.86731 8.23425 2.27089 8.23468H20.6042ZM18.7709 12.7347C18.0959 12.7347 17.5487 13.4063 17.5487 14.2347C17.5487 15.0631 18.0959 15.7347 18.7709 15.7347C19.4459 15.7347 19.9931 15.0631 19.9931 14.2347C19.9931 13.4063 19.4459 12.7347 18.7709 12.7347ZM15.1042 12.7347C14.4292 12.7347 13.882 13.4063 13.882 14.2347C13.882 15.0631 14.4292 15.7347 15.1042 15.7347C15.7792 15.7347 16.3264 15.0631 16.3264 14.2347C16.3264 13.4063 15.7792 12.7347 15.1042 12.7347Z" fill="white"/>
</svg>
