<svg width="22" height="24" viewBox="0 0 22 24" fill="none" xmlns="http://www.w3.org/2000/svg">
<path d="M0.53335 6.93879L10.5425 11.8921C10.8347 12.0369 11.1651 12.0369 11.4573 11.8921L21.4664 6.93879C22.1776 6.58676 22.1776 5.41441 21.4664 5.06238L11.4577 0.108631C11.3142 0.0370488 11.1582 0 11.0003 0C10.8425 0 10.6865 0.0370488 10.5429 0.108631L0.53335 5.06191C-0.177783 5.41395 -0.177783 6.58676 0.53335 6.93879ZM21.4669 11.0769L18.9708 9.8427L12.0253 13.2772C11.7005 13.438 11.3555 13.5196 11.0001 13.5196C10.6448 13.5196 10.3001 13.438 9.97487 13.2772L3.02983 9.8427L0.53335 11.0769C-0.177783 11.4285 -0.177783 12.6004 0.53335 12.9519L10.5425 17.9015C10.8347 18.0458 11.1651 18.0458 11.4573 17.9015L21.4669 12.9519C22.178 12.6004 22.178 11.4285 21.4669 11.0769ZM21.4669 17.0675L18.9803 15.838L12.0253 19.2772C11.7005 19.438 11.3555 19.5196 11.0001 19.5196C10.6448 19.5196 10.3001 19.438 9.97487 19.2772L3.02038 15.838L0.53335 17.0675C-0.177783 17.4191 -0.177783 18.591 0.53335 18.9425L10.5425 23.8921C10.8347 24.0365 11.1651 24.0365 11.4573 23.8921L21.4669 18.9425C22.178 18.591 22.178 17.4191 21.4669 17.0675Z" fill="white"/>
</svg>
