<svg width="22" height="24" viewBox="0 0 22 24" fill="none" xmlns="http://www.w3.org/2000/svg">
<path d="M8.77799 0.236018C4.5069 1.14539 1.0651 4.8907 0.222913 9.53601C-1.36693 18.3016 5.8819 24.836 11.3432 23.9126C13.1135 23.6126 13.9815 21.3532 13.1694 19.6141C12.1768 17.486 13.5948 15.0016 15.7862 15.0016H19.2108C20.7491 15.0016 21.9952 13.6141 21.9995 11.9407C21.978 4.5532 15.8163 -1.25929 8.77799 0.236018ZM4.12448 15.0016C3.36393 15.0016 2.74948 14.3313 2.74948 13.5016C2.74948 12.6719 3.36393 12.0016 4.12448 12.0016C4.88502 12.0016 5.49948 12.6719 5.49948 13.5016C5.49948 14.3313 4.88502 15.0016 4.12448 15.0016ZM5.49948 9.00164C4.73893 9.00164 4.12448 8.33133 4.12448 7.50164C4.12448 6.67195 4.73893 6.00164 5.49948 6.00164C6.26002 6.00164 6.87448 6.67195 6.87448 7.50164C6.87448 8.33133 6.26002 9.00164 5.49948 9.00164ZM10.9995 6.00164C10.2389 6.00164 9.62448 5.33133 9.62448 4.50164C9.62448 3.67195 10.2389 3.00164 10.9995 3.00164C11.76 3.00164 12.3745 3.67195 12.3745 4.50164C12.3745 5.33133 11.76 6.00164 10.9995 6.00164ZM16.4995 9.00164C15.7389 9.00164 15.1245 8.33133 15.1245 7.50164C15.1245 6.67195 15.7389 6.00164 16.4995 6.00164C17.26 6.00164 17.8745 6.67195 17.8745 7.50164C17.8745 8.33133 17.26 9.00164 16.4995 9.00164Z" fill="white"/>
</svg>
