<svg width="22" height="24" viewBox="0 0 22 24" fill="none" xmlns="http://www.w3.org/2000/svg">
<path d="M10.6758 1.89004e-05C13.5233 0.00559702 16.1086 1.22969 18.0174 3.21963L19.552 1.54549C20.2017 0.836784 21.3125 1.33872 21.3125 2.341V8.62502C21.3125 9.24634 20.8508 9.75001 20.2812 9.75001H14.5209C13.6021 9.75001 13.142 8.53825 13.7917 7.8295L15.5856 5.87247C14.2594 4.51783 12.5434 3.76745 10.7203 3.7503C6.75005 3.71289 3.40343 7.21797 3.43776 11.6929C3.47033 15.9379 6.62509 19.5 10.6562 19.5C12.4234 19.5 14.0936 18.812 15.4098 17.5521C15.6136 17.357 15.9214 17.3689 16.1132 17.578L17.8174 19.4372C18.0267 19.6655 18.0164 20.0379 17.7967 20.2543C15.9071 22.1162 13.4031 23.25 10.6562 23.25C4.77099 23.25 4.2969e-05 18.0453 2.88645e-10 11.6251C-4.29685e-05 5.21219 4.79729 -0.0114655 10.6758 1.89004e-05Z" fill="white"/>
</svg>
