<svg width="22" height="24" viewBox="0 0 22 24" fill="none" xmlns="http://www.w3.org/2000/svg">
<path d="M10.6367 1.89004e-05C7.7892 0.00559702 5.20382 1.22969 3.29506 3.21963L1.76047 1.54553C1.11079 0.836784 0 1.33872 0 2.341V8.62502C0 9.24634 0.461699 9.75001 1.03125 9.75001H6.7916C7.71036 9.75001 8.17046 8.53825 7.52082 7.8295L5.72687 5.87247C7.05306 4.51783 8.76911 3.76745 10.5922 3.7503C14.5625 3.71289 17.9091 7.21797 17.8747 11.6929C17.8422 15.9379 14.6874 19.5 10.6562 19.5C8.88907 19.5 7.21888 18.812 5.90262 17.5521C5.69882 17.357 5.39103 17.3689 5.1993 17.578L3.49508 19.4372C3.28573 19.6655 3.29609 20.0379 3.51579 20.2543C5.40538 22.1162 7.90943 23.25 10.6562 23.25C16.5415 23.25 21.3125 18.0453 21.3125 11.6251C21.3125 5.21219 16.5152 -0.0114655 10.6367 1.89004e-05Z" fill="white"/>
</svg>
