<svg width="22" height="24" viewBox="0 0 22 24" fill="none" xmlns="http://www.w3.org/2000/svg">
<path d="M15.17 12L21.4244 5.17705C22.1919 4.33977 22.1919 2.98227 21.4244 2.14432L20.0344 0.627955C19.2669 -0.209318 18.0225 -0.209318 17.2544 0.627955L11 7.45091L4.74563 0.627955C3.97813 -0.209318 2.73375 -0.209318 1.96563 0.627955L0.575625 2.14432C-0.191875 2.98159 -0.191875 4.33909 0.575625 5.17705L6.83 12L0.575625 18.823C-0.191875 19.6602 -0.191875 21.0177 0.575625 21.8557L1.96563 23.372C2.73313 24.2093 3.97813 24.2093 4.74563 23.372L11 16.5491L17.2544 23.372C18.0219 24.2093 19.2669 24.2093 20.0344 23.372L21.4244 21.8557C22.1919 21.0184 22.1919 19.6609 21.4244 18.823L15.17 12Z" fill="white"/>
</svg>
