<svg width="33" height="25" viewBox="0 0 33 25" fill="none" xmlns="http://www.w3.org/2000/svg">
<path fill-rule="evenodd" clip-rule="evenodd" d="M4.5 0V4.64286H0V5.64286H4.5V10.2857H5.5V5.64286H10V4.64286H5.5V0H4.5ZM0 18.5H10V17.5H0V18.5ZM28.4152 16.0781L32.6992 20.7516C33.0988 21.1922 33.0988 21.9047 32.6949 22.3453L31.4789 23.6719C31.0793 24.1125 30.4262 24.1125 30.0223 23.6719L25.7383 18.9984C25.5449 18.7875 25.4375 18.5016 25.4375 18.2016V17.4375C23.9207 18.7313 22.0129 19.5 19.9375 19.5C15.0004 19.5 11 15.1359 11 9.75C11 4.36406 15.0004 0 19.9375 0C24.8746 0 28.875 4.36406 28.875 9.75C28.875 12.0141 28.1703 14.0953 26.9844 15.75H27.6848C27.9598 15.75 28.2219 15.8672 28.4152 16.0781ZM14.4375 9.75C14.4375 13.0688 16.8996 15.75 19.9375 15.75C22.9797 15.75 25.4375 13.0641 25.4375 9.75C25.4375 6.43125 22.9754 3.75 19.9375 3.75C16.8953 3.75 14.4375 6.43594 14.4375 9.75Z" fill="white"/>
</svg>
